# File produced by Open Asset Import Library (http://www.assimp.sf.net)
# (assimp v5.0.0)

mtllib pmc_skin_bumble.mtl

# 91 vertex positions
v  0.1458378 -0.010104841 -0.12421061
v  0.1460373 -0.024074633 -0.11988801
v  0.14603761 -0.038253233 -0.12366891
v  0.1460382 -0.04198166 -0.1227753
v  0.1460361 -0.094752185 -0.12363121
v  0.096262068 0.068750165 -0.14605001
v  0.099919289 0.067321092 -0.14528611
v  0.09689068 0.06812153 -0.14605001
v  0.1028365 0.070754483 -0.1460475
v  0.10652511 0.068113677 -0.14606251
v  0.1067374 0.068164013 -0.1445418
v  0.10314371 0.063444152 -0.1460481
v  0.1033231 0.063874714 -0.14451802
v  0.06987378 0.10093571 -0.14605731
v  0.066630155 0.099934392 -0.144527
v  0.070638068 0.10229851 -0.14452651
v  0.067118272 0.1014073 -0.14452571
v  -0.024192151 0.081020251 -0.14764041
v  0.059316665 0.1135554 -0.1476375
v  0.0083043305 0.083646432 -0.14683691
v  0.140799 -0.0057151522 -0.14718781
v  0.1406464 -0.1085849 -0.14698701
v  0.1325642 -0.1088958 -0.14764301
v  -0.10741661 -0.0057150004 -0.1476375
v  -0.079919644 -0.02565581 -0.1468371
v  -0.1136068 -0.059383124 -0.1467476
v  -0.083821863 -0.0072325827 -0.14683731
v  0.061896604 -0.056935534 -0.14764221
v  0.10851831 -0.13241221 -0.14776081
v  0.04727504 -0.069540672 -0.14649801
v  0.075135976 -0.037680004 -0.14763631
v  -0.10741661 0.0057150004 -0.1476375
v  -0.082688078 0.015107401 -0.1471063
v  -0.075135976 0.037680004 -0.14763631
v  0.024192151 -0.081020251 -0.14764032
v  0.10741661 -0.0057150004 -0.1476375
v  -0.14108381 -0.0057150992 -0.14703541
v  -0.13925721 -0.10858451 -0.14746919
v  0.082688078 -0.015107401 -0.1471063
v  -0.140799 0.0057151522 -0.14718781
v  -0.1325642 0.1088958 -0.14764301
v  -0.061896604 0.056935534 -0.14764221
v  -0.10851831 0.13241221 -0.14776081
v  -0.04727504 0.069540672 -0.14649801
v  0.083821863 0.0072325827 -0.14683731
v  0.10741661 0.0057150004 -0.1476375
v  -0.1406464 0.1085849 -0.14698701
v  0.10858471 0.1397659 -0.1473722
v  0.079919644 0.02565581 -0.1468371
v  -0.059316665 -0.1135554 -0.1476375
v  -0.0083043305 -0.083646432 -0.14683691
v  -0.025654232 -0.0799198 -0.14683682
v  0.1136068 0.059383124 -0.1467476
v  0.14108381 0.0057150992 -0.14703541
v  0.13925721 0.10858451 -0.14746919
v  0.1032806 0.076198481 -0.14764801
v  -0.10858471 -0.1397659 -0.1473722
v  -0.079406098 -0.10110311 -0.14764191
v  -0.1087159 -0.13255791 -0.1472078
v  0.13256671 0.10870881 -0.14642981
v  0.1087159 0.13255791 -0.1472078
v  0.079406098 0.10110311 -0.14764191
v  -0.1032806 -0.076198481 -0.14764801
v  -0.13256671 -0.10870881 -0.14642981
v  0.025654232 0.0799198 -0.14683682
v  -0.10858501 0.14166711 -0.14576481
v  0.1085849 0.1470127 -0.14103231
v  -0.1085851 0.146198 -0.14011021
v  0.1469036 0.10858501 -0.14146781
v  0.14638661 0.0057149031 -0.13990991
v  0.14613441 -0.10858531 -0.14127821
v  0.14729771 -0.0057150642 -0.1398541
v  0.10858501 -0.14166711 -0.14576481
v  -0.1085849 -0.1470127 -0.14103231
v  0.1085851 -0.146198 -0.14011021
v  -0.1469036 -0.10858501 -0.14146781
v  -0.14638661 -0.0057149031 -0.13990991
v  -0.14613441 0.10858531 -0.14127821
v  -0.14729771 0.0057150642 -0.1398541
v  -0.10858501 0.14683741 -0.12534991
v  0.10858501 0.14683741 -0.12534991
v  0.14683741 0.0057151932 -0.12534851
v  0.14683741 0.10858501 -0.12534951
v  0.14683741 -0.10858501 -0.1253483
v  0.14683741 -0.0057150004 -0.12534881
v  0.10858501 -0.14683741 -0.12534991
v  -0.10858501 -0.14683741 -0.12534991
v  -0.14683741 -0.0057151932 -0.12534851
v  -0.14683741 -0.10858501 -0.12534951
v  -0.14683741 0.10858501 -0.1253483
v  -0.14683741 0.0057150004 -0.12534881

# 91 UV coordinates
vt 0.95784992 0.53172398 0
vt 0.95847613 0.5755837 0
vt 0.95847613 0.6204868 0
vt 0.95847613 0.6309365 0
vt 0.95847613 0.79616642 0
vt 0.8022095 0.28415489 0
vt 0.81458533 0.2885991 0
vt 0.80418289 0.28612849 0
vt 0.82319731 0.27903271 0
vt 0.83341432 0.28645471 0
vt 0.83317858 0.28636321 0
vt 0.82424468 0.30102581 0
vt 0.82442558 0.2974388 0
vt 0.71838272 0.1819957 0
vt 0.7095471 0.1850197 0
vt 0.72060323 0.1785939 0
vt 0.71090549 0.17960881 0
vt 0.42515561 0.2495373 0
vt 0.68622142 0.14348599 0
vt 0.52693278 0.23860499 0
vt 0.94114482 0.51794261 0
vt 0.94114453 0.840909 0
vt 0.91474301 0.84062213 0
vt 0.1627716 0.51794273 0
vt 0.24912509 0.58050138 0
vt 0.1433972 0.6863544 0
vt 0.2382541 0.52263868 0
vt 0.69333577 0.67785752 0
vt 0.84090811 0.91571498 0
vt 0.64804268 0.71725613 0
vt 0.73490828 0.61781418 0
vt 0.1627716 0.48205751 0
vt 0.2413931 0.45310059 0
vt 0.26509181 0.38218591 0
vt 0.57484472 0.75046277 0
vt 0.8372286 0.51794261 0
vt 0.057921581 0.51794273 0
vt 0.063080132 0.84090912 0
vt 0.75860697 0.5468995 0
vt 0.058855232 0.4820576 0
vt 0.085257053 0.1593779 0
vt 0.3066645 0.32214269 0
vt 0.1590919 0.084285021 0
vt 0.35195729 0.2827439 0
vt 0.76174611 0.47736129 0
vt 0.8372286 0.48205751 0
vt 0.058855709 0.15909091 0
vt 0.84089661 0.061614871 0
vt 0.75087488 0.41949859 0
vt 0.3137787 0.85651398 0
vt 0.47306719 0.76139492 0
vt 0.41949239 0.75088161 0
vt 0.85660303 0.31364569 0
vt 0.94207859 0.48205751 0
vt 0.93692011 0.15909091 0
vt 0.82329571 0.26148731 0
vt 0.1591033 0.93838513 0
vt 0.2521244 0.81564891 0
vt 0.15931401 0.91473228 0
vt 0.91505319 0.1596763 0
vt 0.84068602 0.085267901 0
vt 0.74787581 0.18435121 0
vt 0.1767043 0.73851281 0
vt 0.084946752 0.84032393 0
vt 0.58050781 0.2491184 0
vt 0.1591033 0.05567896 0
vt 0.84089661 0.040188842 0
vt 0.1591033 0.04180067 0
vt 0.95890367 0.15909091 0
vt 0.95863903 0.48205751 0
vt 0.95963508 0.840909 0
vt 0.96132982 0.51794261 0
vt 0.84089673 0.94432098 0
vt 0.1591033 0.95981121 0
vt 0.84089673 0.95819932 0
vt 0.041096382 0.84090912 0
vt 0.04136103 0.51794273 0
vt 0.040365212 0.15909091 0
vt 0.038670301 0.48205751 0
vt 0.1591035 0.038995441 0
vt 0.84089661 0.038995501 0
vt 0.96098799 0.48205751 0
vt 0.96098793 0.15909091 0
vt 0.9609881 0.840909 0
vt 0.96098799 0.51794261 0
vt 0.84089673 0.9610045 0
vt 0.1591035 0.96100461 0
vt 0.03901219 0.51794273 0
vt 0.039012309 0.84090912 0
vt 0.03901219 0.15909091 0
vt 0.03901219 0.48205751 0

# 81 vertex normals
vn 0.00099967222 6.6195134e-06 -2.4733961e-05
vn 0.0009999997 -2.6986498e-08 -7.75866e-07
vn 0.00030849609 0.00030847162 -0.00089981983
vn -0.00057847175 -0.00080858398 0.0001075291
vn -0.00077990384 0.00062035385 -8.3134772e-05
vn -0.00045196802 0.00076633575 -0.00045656812
vn -4.9418605e-07 1.0537501e-06 -0.00099999947
vn 3.107345e-05 -7.9668222e-05 -0.00099633716
vn 8.097964e-05 -2.065837e-06 -0.00099671376
vn 1.5760481e-05 -1.839423e-05 -0.00099970668
vn 3.4360881e-05 7.2686676e-06 -0.00099938316
vn 2.095878e-06 2.8661482e-06 -0.00099999376
vn -5.1852465e-05 -3.0461251e-05 -0.00099819014
vn 1.41784e-07 2.0878701e-07 -0.001
vn 3.3894892e-05 0 -0.00099942554
vn 2.6555241e-05 -1.3382851e-05 -0.00099955779
vn 3.4782643e-05 -3.5088891e-05 -0.00099877873
vn 2.6570611e-05 4.5940455e-05 -0.00099859084
vn 4.8719044e-06 4.0226573e-06 -0.00099998014
vn 1.3468381e-05 -1.3639151e-05 -0.00099981623
vn 1.9378902e-05 4.5601123e-06 -0.00099980191
vn -3.4782643e-05 3.5088891e-05 -0.00099877873
vn -1.7878941e-05 -1.4515042e-05 -0.00099973485
vn -1.3468381e-05 1.3639151e-05 -0.00099981623
vn -4.8719044e-06 -4.0225382e-06 -0.00099998014
vn -1.41784e-07 -2.09264e-07 -0.001
vn 5.1852465e-05 3.0461251e-05 -0.00099819014
vn -2.6573241e-05 -4.5942485e-05 -0.00099859061
vn -2.095878e-06 -2.8663271e-06 -0.00099999376
vn -2.6555241e-05 1.3382911e-05 -0.00099955779
vn -3.3894892e-05 0 -0.00099942542
vn -8.0979582e-05 2.065837e-06 -0.00099671376
vn 5.78011e-07 -1.39445e-06 -0.000999999
vn 1.5454881e-06 7.2174075e-06 -0.00099997292
vn -3.4360881e-05 -7.268965e-06 -0.00099938316
vn -3.1070173e-05 7.9662444e-05 -0.00099633774
vn 4.2032593e-06 1.959556e-05 -0.00099979935
vn -5.77766e-07 1.3964171e-06 -0.000999999
vn 1.7878941e-05 1.4514981e-05 -0.00099973497
vn -1.5760481e-05 1.839447e-05 -0.00099970668
vn 3.4204182e-05 -3.2481781e-05 -0.000998887
vn -1.9378902e-05 -4.5601123e-06 -0.00099980191
vn -2.7963511e-06 -4.8653483e-06 -0.00099998433
vn -1.5454881e-06 -7.2175862e-06 -0.00099997292
vn -3.8497325e-05 2.2085422e-05 -0.00099901471
vn -0.0001481932 0.00017000431 -0.00097423675
vn 3.684824e-05 4.2518973e-06 -0.0009993118
vn 7.1707964e-06 7.1189993e-06 -0.00099994906
vn -7.1707964e-06 -7.1188215e-06 -0.00099994906
vn -3.684824e-05 -4.2517181e-06 -0.0009993118
vn 3.8497325e-05 -2.208536e-05 -0.00099901471
vn 0.0001481932 -0.0001700047 -0.00097423675
vn 2.7963511e-06 4.8653483e-06 -0.00099998433
vn -3.4204182e-05 3.2481781e-05 -0.00099888688
vn -4.2032593e-06 -1.959556e-05 -0.00099979935
vn -5.3898093e-06 0.0002107797 -0.00097751885
vn 1.9365299e-07 0.00065844355 -0.00075263024
vn -5.5823925e-06 0.0007803702 -0.00062529295
vn 0.00061739027 7.6453689e-06 -0.00078662008
vn 0.000802161 -1.307207e-05 -0.00059696479
vn 0.00072090531 -2.4221531e-06 -0.00069302955
vn 0.00074843108 7.1776702e-07 -0.00066321233
vn 5.3898093e-06 -0.0002107797 -0.00097751885
vn -1.9365299e-07 -0.00065844355 -0.00075263024
vn 5.5823925e-06 -0.0007803702 -0.00062529295
vn -0.00061739027 -7.6453689e-06 -0.00078662008
vn -0.000802161 1.307207e-05 -0.00059696479
vn -0.00072090531 2.4221531e-06 -0.00069302955
vn -0.00074843108 -7.1776702e-07 -0.00066321233
vn 0 0.00099993753 1.117694e-05
vn -3.9315814e-06 0.00099905534 -4.3278211e-05
vn 0.00099999167 0 4.1062235e-06
vn 0.00099950621 -5.4918519e-06 -3.094404e-05
vn 0.00099949702 1.4820201e-10 3.1717122e-05
vn 0.0009989707 -1.068645e-05 -4.4085744e-05
vn 0 -0.00099993753 1.117694e-05
vn 3.9315814e-06 -0.00099905534 -4.3278211e-05
vn -0.00099999167 0 4.1062235e-06
vn -0.00099950621 5.4918519e-06 -3.094404e-05
vn -0.00099949702 -1.4820201e-10 3.1717122e-05
vn -0.0009989707 1.068645e-05 -4.4085744e-05

# Mesh 'Astrobee.002' with 81 faces
g Astrobee.002
usemtl Material_003
f  1/1/1 2/2/1 3/3/1
f  4/4/2 5/5/2 3/3/2
f  6/6/3 7/7/3 8/8/3
f  9/9/4 10/10/4 11/11/4
f  12/12/5 13/13/5 11/11/5
f  14/14/6 15/15/6 16/16/6
f  17/17/7 16/16/7 15/15/7
f  18/18/8 19/19/8 20/20/8
f  21/21/9 22/22/9 23/23/9
f  24/24/10 25/25/10 26/26/10
f  24/24/11 27/27/11 25/25/11
f  28/28/12 23/23/12 29/29/12
f  30/30/13 28/28/13 29/29/13
f  31/31/14 23/23/14 28/28/14
f  32/32/15 27/27/15 24/24/15
f  32/32/16 33/33/16 27/27/16
f  32/32/17 34/34/17 33/33/17
f  35/35/18 30/30/18 29/29/18
f  31/31/19 21/21/19 23/23/19
f  31/31/20 36/36/20 21/21/20
f  37/37/21 26/26/21 38/38/21
f  39/39/22 36/36/22 31/31/22
f  37/37/23 24/24/23 26/26/23
f  40/40/24 34/34/24 32/32/24
f  41/41/25 34/34/25 40/40/25
f  41/41/26 42/42/26 34/34/26
f  43/43/27 44/44/27 42/42/27
f  43/43/28 18/18/28 44/44/28
f  41/41/29 43/43/29 42/42/29
f  45/45/30 36/36/30 39/39/30
f  45/45/31 46/46/31 36/36/31
f  47/47/32 41/41/32 40/40/32
f  43/43/33 19/19/33 18/18/33
f  43/43/34 48/48/34 19/19/34
f  49/49/35 46/46/35 45/45/35
f  50/50/36 51/51/36 35/35/36
f  50/50/37 52/52/37 51/51/37
f  50/50/38 35/35/38 29/29/38
f  53/53/39 54/54/39 46/46/39
f  49/49/40 53/53/40 46/46/40
f  55/55/41 53/53/41 56/56/41
f  55/55/42 54/54/42 53/53/42
f  57/57/43 58/58/43 50/50/43
f  57/57/44 50/50/44 29/29/44
f  59/59/45 58/58/45 57/57/45
f  60/60/46 55/55/46 56/56/46
f  56/56/47 61/61/47 60/60/47
f  62/62/48 61/61/48 56/56/48
f  59/59/49 63/63/49 58/58/49
f  64/64/50 63/63/50 59/59/50
f  62/62/51 48/48/51 61/61/51
f  63/63/52 64/64/52 38/38/52
f  19/19/53 48/48/53 62/62/53
f  26/26/54 63/63/54 38/38/54
f  20/20/55 19/19/55 65/65/55
f  48/48/56 43/43/56 66/66/56
f  67/67/57 48/48/57 66/66/57
f  67/67/58 66/66/58 68/68/58
f  54/54/59 55/55/59 69/69/59
f  70/70/60 54/54/60 69/69/60
f  71/71/61 22/22/61 21/21/61
f  71/71/62 21/21/62 72/72/62
f  57/57/63 29/29/63 73/73/63
f  74/74/64 57/57/64 73/73/64
f  74/74/65 73/73/65 75/75/65
f  37/37/66 38/38/66 76/76/66
f  77/77/67 37/37/67 76/76/67
f  78/78/68 47/47/68 40/40/68
f  78/78/69 40/40/69 79/79/69
f  67/67/70 80/80/70 81/81/70
f  67/67/71 68/68/71 80/80/71
f  82/82/72 69/69/72 83/83/72
f  70/70/73 69/69/73 82/82/73
f  84/84/74 72/72/74 85/85/74
f  71/71/75 72/72/75 84/84/75
f  74/74/76 86/86/76 87/87/76
f  74/74/77 75/75/77 86/86/77
f  88/88/78 76/76/78 89/89/78
f  77/77/79 76/76/79 88/88/79
f  90/90/80 79/79/80 91/91/80
f  78/78/81 79/79/81 90/90/81

