v 0.06138287112 -0.02500000037 4.221996086e-10
vn -0.3538125455 -0.04817911983 -0.9340746403
v 0.07500000298 -0.02500000037 4.221996086e-10
vn 0.8778789639 -0.4653697014 -0.112958163
v 0.04972646013 -0.02500000037 0.009573213756
vn -0.5315572619 -0.1961826831 -0.8239898086
v 0.06293672323 -0.02500000037 0.01207610033
vn 0.6523208618 -0.1959153414 0.7321848273
v 0.03660432994 -0.02500000037 0.0170115009
vn -0.3827556968 -0.1964868307 -0.90271312
v 0.04895855114 -0.02500000037 0.02187230997
vn 0.5151987672 -0.1956351995 0.8344441652
v 0.02240327001 -0.02500000037 0.02209562063
vn -0.2226910591 -0.1967864633 -0.9548213482
v 0.03349079937 -0.02500000037 0.02909060009
vn 0.3623853624 -0.1953593791 0.9113240838
v 0.007541855797 -0.02500000037 0.02467570081
vn -0.05503058806 -0.2730622888 -0.9604210854
v 0.01700408012 -0.02500000037 0.03351132944
vn 0.2005197555 -0.136587888 0.9701214433
v 6.838974192e-16 -0.02500000037 0.03500000015
vn 0.02865841985 -0.1864978373 0.9820373058
v -0.007541855797 -0.02500000037 0.02467570081
vn 0.1100611761 -0.273062259 -0.9556795955
v -0.01700408012 -0.02500000037 0.03351132944
vn -0.1436050981 -0.136587888 0.9801639318
v -0.03349079937 -0.02500000037 0.02909060009
vn -0.3086240292 -0.1953594238 0.9309059381
v -0.02240327001 -0.02500000037 0.02209562063
vn 0.2771241069 -0.1967864931 -0.9404665232
v -0.04895855114 -0.02500000037 0.02187230997
vn -0.4656610489 -0.1956351995 0.8630681634
v -0.03660432994 -0.02500000037 0.0170115009
vn 0.4339339137 -0.1964868307 -0.8792577982
v -0.06293672323 -0.02500000037 0.01207610033
vn -0.6085125804 -0.1959153116 0.768979609
v -0.04972646013 -0.02500000037 0.009573213756
vn 0.5779722333 -0.196182698 -0.792124033
v -0.07500000298 -0.02500000037 4.221996086e-10
vn -0.9592310786 -0.2542474866 -0.1234258711
v -0.06138287112 -0.02500000037 4.221996086e-10
vn 0.3525870144 -0.09602447599 -0.9308392406
v -0.07500000298 0.02500000037 4.221996086e-10
vn -0.8778789639 0.4653697014 -0.112958163
v -0.06138287112 0.02500000037 4.221996086e-10
vn 0.3538125455 0.04817911983 -0.9340746403
v -0.04972646013 0.02500000037 0.009573213756
vn 0.5315572619 0.1961826831 -0.8239898086
v -0.03660432994 0.02500000037 0.0170115009
vn 0.3827556968 0.1964868307 -0.90271312
v -0.02240327001 0.02500000037 0.02209562063
vn 0.2226910591 0.1967864633 -0.9548213482
v -0.007541855797 0.02500000037 0.02467570081
vn 0.05503058806 0.2730622888 -0.9604210854
v 0.007541855797 0.02500000037 0.02467570081
vn -0.1100611761 0.273062259 -0.9556795955
v 0.02240327001 0.02500000037 0.02209562063
vn -0.2771241069 0.1967864931 -0.9404665232
v 0.03660432994 0.02500000037 0.0170115009
vn -0.4339339137 0.1964868307 -0.8792577982
v 0.04972646013 0.02500000037 0.009573213756
vn -0.5779722333 0.196182698 -0.792124033
v 0.06138287112 0.02500000037 4.221996086e-10
vn -0.3525870144 0.09602447599 -0.9308392406
v 0.07500000298 0.02500000037 4.221996086e-10
vn 0.9592310786 0.2542474866 -0.1234258711
v 0.06293672323 0.02500000037 0.01207610033
vn 0.6085125804 0.1959153116 0.768979609
v 0.04895855114 0.02500000037 0.02187230997
vn 0.4656610489 0.1956351995 0.8630681634
v 0.03349079937 0.02500000037 0.02909060009
vn 0.3086240292 0.1953594238 0.9309059381
v 0.01700408012 0.02500000037 0.03351132944
vn 0.1436050981 0.136587888 0.9801639318
v 6.661338148e-16 0.02500000037 0.03500000015
vn -0.02865841985 0.1864978373 0.9820373058
v -0.01700408012 0.02500000037 0.03351132944
vn -0.2005197555 0.136587888 0.9701214433
v -0.03349079937 0.02500000037 0.02909060009
vn -0.3623853624 0.1953593791 0.9113240838
v -0.04895855114 0.02500000037 0.02187230997
vn -0.5151987672 0.1956351995 0.8344441652
v -0.06293672323 0.02500000037 0.01207610033
vn -0.6523208618 0.1959153414 0.7321848273
# mm_gid 0
g mmGroup0
f 1//1 2//2 3//3 
f 3//3 2//2 4//4 
f 3//3 4//4 5//5 
f 5//5 4//4 6//6 
f 5//5 6//6 7//7 
f 7//7 6//6 8//8 
f 7//7 8//8 9//9 
f 9//9 8//8 10//10 
f 9//9 10//10 11//11 
f 9//9 11//11 12//12 
f 12//12 11//11 13//13 
f 12//12 13//13 14//14 
f 12//12 14//14 15//15 
f 15//15 14//14 16//16 
f 15//15 16//16 17//17 
f 17//17 16//16 18//18 
f 17//17 18//18 19//19 
f 19//19 18//18 20//20 
f 19//19 20//20 21//21 
f 22//22 23//23 20//20 
f 20//20 23//23 21//21 
f 21//21 23//23 19//19 
f 19//19 23//23 24//24 
f 19//19 24//24 17//17 
f 17//17 24//24 25//25 
f 17//17 25//25 15//15 
f 15//15 25//25 26//26 
f 15//15 26//26 12//12 
f 12//12 26//26 27//27 
f 12//12 27//27 9//9 
f 9//9 27//27 28//28 
f 9//9 28//28 7//7 
f 7//7 28//28 29//29 
f 7//7 29//29 5//5 
f 5//5 29//29 30//30 
f 5//5 30//30 3//3 
f 3//3 30//30 31//31 
f 3//3 31//31 1//1 
f 1//1 31//31 32//32 
f 32//32 33//33 1//1 
f 1//1 33//33 2//2 
f 2//2 33//33 4//4 
f 4//4 33//33 34//34 
f 4//4 34//34 6//6 
f 6//6 34//34 35//35 
f 6//6 35//35 8//8 
f 8//8 35//35 36//36 
f 8//8 36//36 10//10 
f 10//10 36//36 37//37 
f 10//10 37//37 11//11 
f 11//11 37//37 38//38 
f 11//11 38//38 13//13 
f 13//13 38//38 39//39 
f 13//13 39//39 14//14 
f 14//14 39//39 40//40 
f 14//14 40//40 16//16 
f 16//16 40//40 41//41 
f 16//16 41//41 18//18 
f 18//18 41//41 42//42 
f 18//18 42//42 20//20 
f 20//20 42//42 22//22 
f 23//23 22//22 24//24 
f 24//24 22//22 42//42 
f 24//24 42//42 25//25 
f 25//25 42//42 41//41 
f 25//25 41//41 26//26 
f 26//26 41//41 40//40 
f 26//26 40//40 27//27 
f 27//27 40//40 39//39 
f 27//27 39//39 38//38 
f 27//27 38//38 28//28 
f 28//28 38//38 37//37 
f 28//28 37//37 36//36 
f 28//28 36//36 29//29 
f 29//29 36//36 35//35 
f 29//29 35//35 30//30 
f 30//30 35//35 34//34 
f 30//30 34//34 31//31 
f 31//31 34//34 33//33 
f 31//31 33//33 32//32 
