# Blender 3.4.1
# www.blender.org
mtllib pmc_skin_honey.mtl
o pmc_skin_honey
v 0.145838 0.124211 -0.010105
v 0.146037 0.119888 -0.024075
v 0.146036 0.123631 -0.094752
v 0.146038 0.123669 -0.038253
v 0.146038 0.122775 -0.041982
v 0.096891 0.146050 0.068122
v 0.103144 0.146048 0.063444
v 0.096262 0.146050 0.068750
v 0.069874 0.146057 0.100936
v 0.102836 0.146048 0.070754
v 0.106525 0.146063 0.068114
v 0.099919 0.145286 0.067321
v 0.103323 0.144518 0.063875
v 0.106737 0.144542 0.068164
v 0.066630 0.144527 0.099934
v 0.070638 0.144526 0.102299
v 0.067118 0.144526 0.101407
v 0.059317 0.147638 0.113555
v 0.140799 0.147188 -0.005715
v 0.140646 0.146987 -0.108585
v 0.132564 0.147643 -0.108896
v 0.061897 0.147642 -0.056936
v -0.107417 0.147638 -0.005715
v -0.079920 0.146837 -0.025656
v -0.113607 0.146748 -0.059383
v -0.083822 0.146837 -0.007233
v 0.108518 0.147761 -0.132412
v 0.047275 0.146498 -0.069541
v 0.075136 0.147636 -0.037680
v -0.107417 0.147638 0.005715
v -0.082688 0.147106 0.015107
v -0.075136 0.147636 0.037680
v 0.024192 0.147640 -0.081020
v 0.107417 0.147638 -0.005715
v -0.141084 0.147035 -0.005715
v -0.139257 0.147469 -0.108585
v 0.082688 0.147106 -0.015107
v -0.140799 0.147188 0.005715
v -0.132564 0.147643 0.108896
v -0.061897 0.147642 0.056936
v -0.108518 0.147761 0.132412
v -0.047275 0.146498 0.069541
v -0.024192 0.147640 0.081020
v 0.083822 0.146837 0.007233
v 0.107417 0.147638 0.005715
v -0.140646 0.146987 0.108585
v 0.108585 0.147372 0.139766
v 0.079920 0.146837 0.025656
v -0.059317 0.147638 -0.113555
v -0.008304 0.146837 -0.083646
v -0.025654 0.146837 -0.079920
v 0.113607 0.146748 0.059383
v 0.141084 0.147035 0.005715
v 0.139257 0.147469 0.108585
v -0.108585 0.147372 -0.139766
v -0.079406 0.147642 -0.101103
v -0.108716 0.147208 -0.132558
v 0.132567 0.146430 0.108709
v 0.103281 0.147648 0.076198
v 0.108716 0.147208 0.132558
v 0.079406 0.147642 0.101103
v -0.103281 0.147648 -0.076198
v -0.132567 0.146430 -0.108709
v 0.025654 0.146837 0.079920
v 0.008304 0.146837 0.083646
v -0.108585 0.145765 0.141667
v 0.108585 0.141032 0.147013
v -0.108585 0.140110 0.146198
v 0.146904 0.141468 0.108585
v 0.146387 0.139910 0.005715
v 0.147298 0.139854 -0.005715
v 0.146134 0.141278 -0.108585
v 0.108585 0.145765 -0.141667
v 0.108585 0.140110 -0.146198
v -0.108585 0.141032 -0.147013
v -0.146904 0.141468 -0.108585
v -0.146387 0.139910 -0.005715
v -0.147298 0.139854 0.005715
v -0.146134 0.141278 0.108585
v -0.108585 0.125350 0.146837
v 0.108585 0.125350 0.146837
v 0.146837 0.125350 0.108585
v 0.146837 0.125349 0.005715
v 0.146837 0.125349 -0.005715
v 0.146837 0.125348 -0.108585
v 0.108585 0.125350 -0.146837
v -0.108585 0.125350 -0.146837
v -0.146837 0.125350 -0.108585
v -0.146837 0.125349 -0.005715
v -0.146837 0.125349 0.005715
v -0.146837 0.125348 0.108585
vn 0.9997 0.0247 0.0066
vn 1.0000 0.0007 -0.0000
vn 0.3085 0.8998 0.3085
vn -0.5785 -0.1075 -0.8086
vn -0.7799 0.0831 0.6204
vn -0.4520 0.4566 0.7663
vn -0.0005 1.0000 0.0011
vn 0.0311 0.9963 -0.0797
vn 0.0810 0.9967 -0.0021
vn 0.0158 0.9997 -0.0184
vn 0.0344 0.9994 0.0073
vn 0.0021 1.0000 0.0029
vn -0.0519 0.9982 -0.0305
vn 0.0001 1.0000 0.0002
vn 0.0339 0.9994 -0.0000
vn 0.0266 0.9996 -0.0134
vn 0.0348 0.9988 -0.0351
vn 0.0266 0.9986 0.0459
vn 0.0049 1.0000 0.0040
vn 0.0135 0.9998 -0.0136
vn 0.0194 0.9998 0.0046
vn -0.0348 0.9988 0.0351
vn -0.0179 0.9997 -0.0145
vn -0.0135 0.9998 0.0136
vn -0.0049 1.0000 -0.0040
vn -0.0001 1.0000 -0.0002
vn 0.0519 0.9982 0.0305
vn -0.0266 0.9986 -0.0459
vn -0.0021 1.0000 -0.0029
vn -0.0266 0.9996 0.0134
vn -0.0339 0.9994 -0.0000
vn -0.0810 0.9967 0.0021
vn 0.0006 1.0000 -0.0014
vn 0.0015 1.0000 0.0072
vn -0.0344 0.9994 -0.0073
vn -0.0311 0.9963 0.0797
vn 0.0042 0.9998 0.0196
vn -0.0006 1.0000 0.0014
vn 0.0179 0.9997 0.0145
vn -0.0158 0.9997 0.0184
vn 0.0342 0.9989 -0.0325
vn -0.0194 0.9998 -0.0046
vn -0.0028 1.0000 -0.0049
vn -0.0015 1.0000 -0.0072
vn -0.0385 0.9990 0.0221
vn -0.1482 0.9742 0.1700
vn 0.0368 0.9993 0.0043
vn 0.0072 0.9999 0.0071
vn -0.0072 0.9999 -0.0071
vn -0.0368 0.9993 -0.0043
vn 0.0385 0.9990 -0.0221
vn 0.1482 0.9742 -0.1700
vn 0.0028 1.0000 0.0049
vn -0.0342 0.9989 0.0325
vn -0.0042 0.9998 -0.0196
vn -0.0054 0.9775 0.2108
vn 0.0002 0.7526 0.6584
vn -0.0056 0.6253 0.7804
vn 0.6174 0.7866 0.0076
vn 0.8022 0.5970 -0.0131
vn 0.7209 0.6930 -0.0024
vn 0.7484 0.6632 0.0007
vn 0.0054 0.9775 -0.2108
vn -0.0002 0.7526 -0.6584
vn 0.0056 0.6253 -0.7804
vn -0.6174 0.7866 -0.0076
vn -0.8022 0.5970 0.0131
vn -0.7209 0.6930 0.0024
vn -0.7484 0.6632 -0.0007
vn -0.0000 -0.0112 0.9999
vn -0.0039 0.0433 0.9991
vn 1.0000 -0.0041 -0.0000
vn 0.9995 0.0309 -0.0055
vn 0.9995 -0.0317 -0.0000
vn 0.9990 0.0441 -0.0107
vn -0.0000 -0.0112 -0.9999
vn 0.0039 0.0433 -0.9991
vn -1.0000 -0.0041 -0.0000
vn -0.9995 0.0309 0.0055
vn -0.9995 -0.0317 -0.0000
vn -0.9990 0.0441 0.0107
vt 0.957850 0.531724
vt 0.958476 0.575584
vt 0.958476 0.796166
vt 0.958476 0.620487
vt 0.958476 0.630937
vt 0.804183 0.286128
vt 0.824245 0.301026
vt 0.802209 0.284155
vt 0.718383 0.181996
vt 0.823197 0.279033
vt 0.833414 0.286455
vt 0.814585 0.288599
vt 0.824426 0.297439
vt 0.833179 0.286363
vt 0.709547 0.185020
vt 0.720603 0.178594
vt 0.710905 0.179609
vt 0.686221 0.143486
vt 0.941145 0.517943
vt 0.941145 0.840909
vt 0.914743 0.840622
vt 0.693336 0.677858
vt 0.162772 0.517943
vt 0.249125 0.580501
vt 0.143397 0.686354
vt 0.238254 0.522639
vt 0.840908 0.915715
vt 0.648043 0.717256
vt 0.734908 0.617814
vt 0.162772 0.482058
vt 0.241393 0.453101
vt 0.265092 0.382186
vt 0.574845 0.750463
vt 0.837229 0.517943
vt 0.057922 0.517943
vt 0.063080 0.840909
vt 0.758607 0.546899
vt 0.058855 0.482058
vt 0.085257 0.159378
vt 0.306664 0.322143
vt 0.159092 0.084285
vt 0.351957 0.282744
vt 0.425156 0.249537
vt 0.761746 0.477361
vt 0.837229 0.482058
vt 0.058856 0.159091
vt 0.840897 0.061615
vt 0.750875 0.419499
vt 0.313779 0.856514
vt 0.473067 0.761395
vt 0.419492 0.750882
vt 0.856603 0.313646
vt 0.942079 0.482058
vt 0.936920 0.159091
vt 0.159103 0.938385
vt 0.252124 0.815649
vt 0.159314 0.914732
vt 0.915053 0.159676
vt 0.823296 0.261487
vt 0.840686 0.085268
vt 0.747876 0.184351
vt 0.176704 0.738513
vt 0.084947 0.840324
vt 0.580508 0.249118
vt 0.526933 0.238605
vt 0.159103 0.055679
vt 0.840897 0.040189
vt 0.159103 0.041801
vt 0.958904 0.159091
vt 0.958639 0.482058
vt 0.961330 0.517943
vt 0.959635 0.840909
vt 0.840897 0.944321
vt 0.840897 0.958199
vt 0.159103 0.959811
vt 0.041096 0.840909
vt 0.041361 0.517943
vt 0.038670 0.482058
vt 0.040365 0.159091
vt 0.159103 0.038995
vt 0.840897 0.038996
vt 0.960988 0.159091
vt 0.960988 0.482058
vt 0.960988 0.517943
vt 0.960988 0.840909
vt 0.840897 0.961004
vt 0.159103 0.961005
vt 0.039012 0.840909
vt 0.039012 0.517943
vt 0.039012 0.482058
vt 0.039012 0.159091
s 0
usemtl astrobee_texture
f 1/1/1 2/2/1 4/4/1
f 5/5/2 3/3/2 4/4/2
f 8/8/3 12/12/3 6/6/3
f 10/10/4 11/11/4 14/14/4
f 7/7/5 13/13/5 14/14/5
f 9/9/6 15/15/6 16/16/6
f 17/17/7 16/16/7 15/15/7
f 43/43/8 18/18/8 65/65/8
f 19/19/9 20/20/9 21/21/9
f 23/23/10 24/24/10 25/25/10
f 23/23/11 26/26/11 24/24/11
f 22/22/12 21/21/12 27/27/12
f 28/28/13 22/22/13 27/27/13
f 29/29/14 21/21/14 22/22/14
f 30/30/15 26/26/15 23/23/15
f 30/30/16 31/31/16 26/26/16
f 30/30/17 32/32/17 31/31/17
f 33/33/18 28/28/18 27/27/18
f 29/29/19 19/19/19 21/21/19
f 29/29/20 34/34/20 19/19/20
f 35/35/21 25/25/21 36/36/21
f 37/37/22 34/34/22 29/29/22
f 35/35/23 23/23/23 25/25/23
f 38/38/24 32/32/24 30/30/24
f 39/39/25 32/32/25 38/38/25
f 39/39/26 40/40/26 32/32/26
f 41/41/27 42/42/27 40/40/27
f 41/41/28 43/43/28 42/42/28
f 39/39/29 41/41/29 40/40/29
f 44/44/30 34/34/30 37/37/30
f 44/44/31 45/45/31 34/34/31
f 46/46/32 39/39/32 38/38/32
f 41/41/33 18/18/33 43/43/33
f 41/41/34 47/47/34 18/18/34
f 48/48/35 45/45/35 44/44/35
f 49/49/36 50/50/36 33/33/36
f 49/49/37 51/51/37 50/50/37
f 49/49/38 33/33/38 27/27/38
f 52/52/39 53/53/39 45/45/39
f 48/48/40 52/52/40 45/45/40
f 54/54/41 52/52/41 59/59/41
f 54/54/42 53/53/42 52/52/42
f 55/55/43 56/56/43 49/49/43
f 55/55/44 49/49/44 27/27/44
f 57/57/45 56/56/45 55/55/45
f 58/58/46 54/54/46 59/59/46
f 59/59/47 60/60/47 58/58/47
f 61/61/48 60/60/48 59/59/48
f 57/57/49 62/62/49 56/56/49
f 63/63/50 62/62/50 57/57/50
f 61/61/51 47/47/51 60/60/51
f 62/62/52 63/63/52 36/36/52
f 18/18/53 47/47/53 61/61/53
f 25/25/54 62/62/54 36/36/54
f 65/65/55 18/18/55 64/64/55
f 47/47/56 41/41/56 66/66/56
f 67/67/57 47/47/57 66/66/57
f 67/67/58 66/66/58 68/68/58
f 53/53/59 54/54/59 69/69/59
f 70/70/60 53/53/60 69/69/60
f 72/72/61 20/20/61 19/19/61
f 72/72/62 19/19/62 71/71/62
f 55/55/63 27/27/63 73/73/63
f 75/75/64 55/55/64 73/73/64
f 75/75/65 73/73/65 74/74/65
f 35/35/66 36/36/66 76/76/66
f 77/77/67 35/35/67 76/76/67
f 79/79/68 46/46/68 38/38/68
f 79/79/69 38/38/69 78/78/69
f 67/67/70 80/80/70 81/81/70
f 67/67/71 68/68/71 80/80/71
f 83/83/72 69/69/72 82/82/72
f 70/70/73 69/69/73 83/83/73
f 85/85/74 71/71/74 84/84/74
f 72/72/75 71/71/75 85/85/75
f 75/75/76 86/86/76 87/87/76
f 75/75/77 74/74/77 86/86/77
f 89/89/78 76/76/78 88/88/78
f 77/77/79 76/76/79 89/89/79
f 91/91/80 78/78/80 90/90/80
f 79/79/81 78/78/81 91/91/81
