v -0.05999999866 -0.1750000119 0.02500000037
vn -0.2609090507 -0.9653633833 5.911145816e-17
v -0.0715610683 -0.125 -0.07434755564
vn 1.03004778e-08 -1 3.054396203e-08
v 0.121637471 0.125 -0.08076434582
vn 0 1 -6.123234263e-17
v -0.06783659011 0.125 0.09100261331
vn 5.230048572e-08 1 -5.067881048e-08
v -0.05999999866 -0.1750000119 -0.02500000037
vn -0.3713907003 -0.9284766912 1.218060113e-16
v 0.125 -0.125 -0.02500000037
vn 0.3156577349 -0.9488731027 3.579935282e-08
v 0.154473573 0.125 0.070024997
vn 0.1692374349 0.985332489 0.02187759615
v -0.1212729514 0.125 -0.06668019295
vn 0 1 -6.123234263e-17
v 0.05999999866 -0.1750000119 -0.02500000037
vn 0.2609090507 -0.9653633833 -3.21502671e-17
v 0.07933706045 -0.05580881611 -0.2099999934
vn 0.025997933 -0.4775174558 -0.8782375455
v 0.05999999866 -0.1750000119 0.02500000037
vn 0.3713907003 -0.9284766912 -8.100406031e-18
v -0.125 -0.125 -0.02500000037
vn -0.07402956486 -0.9972560406 8.066783685e-09
v 0.1930191219 -0.125 -0.07379063219
vn 0.4233964682 -0.9058988094 -0.009098415263
v -0.1003964469 -0.125 -0.1335947514
vn 0.04241721705 -0.971339643 -0.2338805348
v -0.1939370334 -0.1249999925 -0.01497143507
vn -0.487103343 -0.8717157841 0.0533098951
v 0.1905066669 -0.125 0.1168241799
vn 0.5153046846 -0.8131706715 0.2705818713
v 0.06538200378 -0.125 -0.01268171705
vn -4.949542998e-08 -1 4.621928085e-08
v -0.125 -0.125 0.02500000037
vn -0.2641265988 -0.964286387 0.01971972547
v -0.07019494474 -0.06348165125 0.2100000083
vn -0.04265505075 -0.4868988097 0.8724162579
v 0.125 -0.125 0.02500000037
vn 0.0893734023 -0.9959982038 -5.003129644e-08
v -0.01287483517 0.1249999925 0.03199213743
vn -2.520630093e-24 1 -6.123232939e-17
v -0.05691929907 -0.004147607833 -0.2100000083
vn 5.747773457e-08 2.434857471e-08 -1
v -0.03437504172 0.0003592707217 0.2099999934
vn 1.021625735e-07 6.779217898e-08 1
v 0.06727214158 0.07102618366 0.2099999785
vn -0.05013180897 0.5869865417 0.8080430627
v -0.04098641872 0.125 -0.1554836035
vn 0.007323428523 0.9341589212 -0.3567821383
v 0.002173729241 -0.125 0.1033172384
vn 0.009087710641 -0.9825879931 0.1855753362
v 0.04469010979 -0.125 -0.1376325637
vn 0.03478598967 -0.8976070881 -0.4394217134
v -0.25 -0.01333261468 -0.06733943522
vn -1 0 0
v 0.25 -0.03171057254 0.01436774433
vn 1 0 0
v -0.25 0.03287221864 -0.005752056837
vn -0.9646081924 0.2621734142 -0.02821661532
v 0.25 0.04877950251 0.002260655165
vn 0.9468100071 0.3190346658 -0.0420438163
v -0.25 -0.07349282503 -0.05781266466
vn -0.8026483655 -0.5950465202 -0.04092974588
v -0.06962956488 -0.125 0.06389234215
vn 3.742378851e-08 -1 -4.98928987e-09
v -0.046567671 -0.1249999925 0.1434992552
vn 0.04045232013 -0.9073862433 0.418346554
v 0.01198365539 -0.125 -0.07119561732
vn -4.284331823e-08 -1 3.618971789e-08
v 0.1966562122 -0.125 -0.1318000406
vn 0.4391222596 -0.7871995568 -0.4329994023
v 0.1299859732 -0.125 0.09037642926
vn -2.78895893e-08 -1 1.989621978e-08
v -0.1823276877 0.02392921969 -0.2099999934
vn -0.4348091483 0.05508439988 -0.8988363147
v -0.1802601218 -0.0007956810296 0.2099999785
vn -0.4552445412 -0.01317195222 0.8902689815
v 0.1851434261 0.04793969542 0.2100000083
vn 0.4264189899 0.4298196435 0.7958780527
v 0.1180395856 0.009423747659 -0.2099999934
vn 3.544799299e-08 5.284332261e-08 -1
v -0.07405763865 0.125 -0.1146844774
vn 0 1 -6.123234263e-17
v 0.1077574119 -0.05033100769 0.2099999934
vn -0.01031172555 -0.3733537197 0.9276317358
v 0.25 0.001081839204 0.0841294229
vn 1 0 0
v -0.1756227911 -0.125 0.1274180114
vn -0.409304738 -0.8724241853 0.2671059966
v 0.25 -0.01153052971 -0.05292136967
vn 1 0 0
v 0.1414914727 -0.125 -0.04654365405
vn -6.129991181e-09 -1 2.69953393e-08
v 0.25 0.07811357826 0.0762841627
vn 0.7943269014 0.6057594419 0.04582893103
v 0.06345802546 0.125 -0.1268742085
vn 0.03306718543 0.9847986698 -0.1705232859
v 0.25 0.0554837808 -0.08118256181
vn 0.8966812491 0.4424595237 -0.01386892423
v -0.04946895689 0.125 0.1568388641
vn 0.04379373416 0.8643804193 0.5009276867
v 0 -0.1750000119 1.071565996e-17
vn 0 -1 6.123234263e-17
v -0.25 -0.002627469599 0.06378526986
vn -1 0 0
v -0.0752581358 0.0626668334 0.2099999934
vn -0.03089484572 0.4095130861 0.9117809534
v -0.04388333112 0.07341000438 -0.2099999785
vn 0.03488345072 0.3720848858 -0.9275429845
v 0.0148832202 0.125 0.1267373413
vn 0.01906989887 0.9593502879 0.2815729976
v -0.09721034765 0.125 0.01105688512
vn 5.606586839e-08 1 9.468851481e-09
v -0.25 0.006882462651 -0.1387248039
vn -0.9173175097 -0.02944584377 -0.3970661759
v 0.08606662601 -0.125 -0.06975478679
vn 1.333529602e-23 -1 6.123232939e-17
v -0.00605083257 0.125 -0.1094958931
vn 0 1 -6.123234263e-17
v 0.02711989731 0.02372027189 -0.2099999934
vn -0.004803556949 0.1129012629 -0.9935945868
v 0.08377251029 0.07884132117 -0.2099999934
vn -0.01218617242 0.5286220908 -0.848769784
v 0.1193449646 0.02500447631 0.2099999785
vn -9.233361453e-08 2.03258228e-08 1
v -0.1294790059 -0.02905429155 -0.2099999934
vn -0.06536871195 -0.1795516461 -0.981574297
v -0.1043344215 -0.125 0.1300088763
vn -0.03260207176 -0.9336773753 0.3566281199
v -0.1068533361 -0.00041083619 0.2099999934
vn -1.400362919e-07 1.152290068e-07 1
v 0.07499192655 -0.125 0.1375464052
vn -0.04815571383 -0.9030718207 0.4267813861
v 0.07229275256 0.125 0.05305536091
vn -6.150904142e-08 1 -1.147056583e-08
v 0.25 -0.08505266905 0.01815307513
vn 0.7963137031 -0.6044893861 0.02184148319
v -0.0333167389 -0.125 -0.1393950135
vn 0.03213592246 -0.9261033535 -0.375898689
v -0.1410560012 0.0610364005 0.2099999785
vn -0.0351575315 0.4610119164 0.8866972327
v -0.25 -0.07641468942 0.05524294451
vn -0.7234705091 -0.6887271404 0.04738504067
v 0.04611394554 0.125 -0.04073233902
vn -3.373701318e-08 1 3.884097666e-08
v 0.25 -0.05273928866 0.1276354194
vn 0.8447958827 -0.4358343184 0.3104325235
v 0.06307858229 -0.125 0.05835269392
vn -5.405289016e-08 -1 -2.67766147e-08
v -0.1837314963 0.125 -0.1476620436
vn -0.3642783165 0.8465049267 -0.3882404864
v -0.25 0.07340622693 0.06581227481
vn -0.7917366624 0.6108278632 0.006506829523
v -0.07961812615 -0.07814854383 -0.2099999934
vn -0.005006985739 -0.5568666458 -0.830586791
v 0.1028180271 0.125 0.134960711
vn -0.03424746543 0.9517900944 0.3048322797
v 0.1617288291 -0.05730012059 -0.2099999934
vn 0.188220948 -0.5113577247 -0.8385023475
v -0.1369444728 0.125 -0.1350444108
vn -0.04589106888 0.9853436947 -0.1642916948
v 0.1829867959 -0.004633311182 0.2099999785
vn 0.2545813918 -0.05732335523 0.9653508663
v -0.1598309577 0.08593063056 -0.2099999934
vn -0.2553345859 0.5512399673 -0.7943165302
v 0.25 -0.04960655421 -0.1541914344
vn 0.7527509332 -0.3357534409 -0.5662469864
v 0.1293463707 0.125 -0.00385588035
vn 0 1 -6.123234263e-17
v 0.1894436628 -0.125 0.05146906897
vn 0.3542098999 -0.9343464971 0.03914087266
v 0.1304675043 0.07880856842 0.2099999785
vn 0.05883653462 0.6314833164 0.7731539607
v -0.1111910343 0.125 0.1468682587
vn -0.0385504216 0.9033452868 0.4271781743
v 0.1914588064 -0.125 -0.009908806533
vn 0.3478571773 -0.9373044372 -0.021349933
v 0.1288573295 -0.125 -0.1256603301
vn 0.00717836665 -0.9159244299 -0.401286602
v -0.01786789671 -0.1249999925 0.006138437893
vn 8.979640761e-24 -1 6.123234263e-17
v -0.25 0.05786862224 -0.07855467498
vn -0.9054633379 0.41798985 0.073625274
v 0.25 -0.003217082471 -0.1237993687
vn 0.9780516624 0.01120788138 -0.2080609053
v 0.1787147373 0.125 0.1404031515
vn 0.4294010401 0.8238712549 0.3699335754
v 0.1816482842 0.125 -0.1191159561
vn 0.4748722315 0.8322869539 -0.2859979272
v -0.137521565 -0.0619032979 0.2099999934
vn -0.02662623487 -0.5442997217 0.838468194
v -0.1866309941 0.125 -0.01421399601
vn -0.4921487868 0.8702414632 0.02166602574
v -0.1885666102 0.05507615954 0.2100000083
vn -0.5727485418 0.390514791 0.720733881
v 0.25 0.0195483081 0.1800696403
vn 0.6717241406 0.1065825745 0.7330940366
v 0.01073518395 -0.06876868755 0.2099999934
vn 0.02983339876 -0.5751888752 0.8174764514
v 0.1218182221 0.125 -0.1494121999
vn 0.06730999053 0.9023504257 -0.4257147312
v -0.25 -0.03771395236 0.1340095699
vn -0.8637108207 -0.2999896705 0.4049811959
v -0.1493469775 0.125 0.07338680327
vn -0.2020149827 0.979363203 0.006137214135
v 0.1877830327 0.125 -0.04390706494
vn 0.5087835789 0.8607478738 -0.01588549837
v -0.25 -0.04301085696 -0.004333909601
vn -0.9743551612 -0.2249403894 -0.00581347663
v -0.1112572253 0.0458529219 -0.2100000083
vn 0.01649373211 0.1527406275 -0.9881286621
v -0.09453581274 0.125 -0.1725767851
vn -0.005254062824 0.7802079916 -0.6254980564
v 0.25 -0.0697324723 0.06867375225
vn 0.8941711783 -0.4407255054 0.078860268
v -0.25 -0.0611288473 -0.1196384877
vn -0.7822437882 -0.5381760597 -0.3137852252
v 0.25 -0.064696908 -0.09507070482
vn 0.9119018316 -0.4078710377 -0.04556617141
v 0.04379161447 0.007088117301 0.2099999785
vn 7.576588956e-08 7.774348632e-08 1
v 0.1863883436 -0.06110281497 0.2099999934
vn 0.4446268082 -0.5109678507 0.7356758118
v -0.005925647914 0.06518674642 0.2099999934
vn 0.03937263042 0.4840979576 0.8741275668
v 0.1942766309 0.125 0.02002178133
vn 0.5061618686 0.8623708487 -0.01080219448
v -0.25 0.07077394426 -0.1471991241
vn -0.788533926 0.4276175499 -0.4419926107
v 0.25 -0.008991580456 0.158849895
vn 0.8834606409 -0.1671890914 0.4376586974
v 0.1980577707 0.002177271992 -0.2099999934
vn 0.5320048332 0.02189604007 -0.846458137
v 0.25 -0.07383045554 -0.03331261873
vn 0.8827195168 -0.4672215581 -0.05010240152
v 0.25 0.04886680841 -0.1488868445
vn 0.7578336596 0.4351333976 -0.4861554205
v 0.1588383615 0.06488665193 -0.2099999785
vn 0.3270666003 0.5226493478 -0.7873151302
v -0.1860483289 -0.05641887709 0.2099999785
vn -0.5608420968 -0.4728185236 0.6796313524
v 0.1377454996 -0.125 0.1529628336
vn 0.02195305191 -0.8352657557 0.5494080186
v -0.1634947807 -0.125 -0.08364547789
vn -0.3102481663 -0.9467659593 -0.08590865135
v -0.04432108998 0.125 -0.04823464528
vn 2.309006497e-08 1 6.390069274e-08
v -0.1528251469 -0.125 -0.1610693634
vn -0.3355047703 -0.7536985278 -0.5651327968
v -0.1930118352 -0.03686574101 -0.2099999934
vn -0.541452527 -0.3251538575 -0.7753090262
v -0.181930393 0.125 0.1405128539
vn -0.472399205 0.8078844547 0.3523658216
v -0.003352936357 -0.06072434038 -0.2099999934
vn 0.04546921328 -0.4530013502 -0.8903495669
v 0.01383233815 0.125 -0.1703523844
vn 0.03790637851 0.7409860492 -0.6704497337
v -0.1881159544 0.125 -0.09827534854
vn -0.4555087686 0.8899146914 0.02373944595
v 0.25 0.04379497468 0.1415558308
vn 0.8339409232 0.4430287182 0.3290411234
v -0.25 0.03533077613 0.1373530626
vn -0.8818725944 0.2330676913 0.4098538756
# mm_gid 0
g mmGroup0
f 40//40 63//63 82//82 
f 41//41 62//62 120//120 
f 125//125 78//78 14//14 
f 21//21 4//4 56//56 
f 21//21 73//73 124//124 
f 39//39 96//96 66//66 
f 18//18 12//12 33//33 
f 17//17 6//6 20//20 
f 90//90 80//80 36//36 
f 3//3 73//73 85//85 
f 12//12 123//123 2//2 
f 22//22 128//128 78//78 
f 38//38 106//106 64//64 
f 125//125 14//14 123//123 
f 4//4 103//103 88//88 
f 40//40 94//94 87//87 
f 116//116 74//74 44//44 
f 3//3 104//104 95//95 
f 27//27 59//59 35//35 
f 15//15 18//18 72//72 
f 36//36 80//80 84//84 
f 93//93 117//117 119//119 
f 65//65 34//34 19//19 
f 65//65 33//33 34//34 
f 37//37 75//75 20//20 
f 40//40 82//82 99//99 
f 32//32 15//15 105//105 
f 61//61 10//10 128//128 
f 6//6 11//11 9//9 
f 20//20 11//11 6//6 
f 5//5 18//18 12//12 
f 1//1 18//18 5//5 
f 5//5 9//9 52//52 
f 11//11 1//1 52//52 
f 39//39 66//66 71//71 
f 51//51 113//113 56//56 
f 7//7 68//68 79//79 
f 55//55 129//129 61//61 
f 60//60 124//124 73//73 
f 127//127 98//98 71//71 
f 26//26 67//67 100//100 
f 90//90 47//47 59//59 
f 27//27 70//70 128//128 
f 45//45 72//72 18//18 
f 8//8 81//81 130//130 
f 110//110 13//13 36//36 
f 48//48 7//7 94//94 
f 92//92 30//30 97//97 
f 103//103 97//97 77//77 
f 110//110 84//84 93//93 
f 31//31 104//104 114//114 
f 14//14 2//2 123//123 
f 117//117 84//84 80//80 
f 102//102 72//72 45//45 
f 20//20 89//89 86//86 
f 26//26 33//33 91//91 
f 91//91 2//2 35//35 
f 14//14 70//70 2//2 
f 95//95 50//50 119//119 
f 44//44 131//131 116//116 
f 37//37 20//20 86//86 
f 55//55 22//22 106//106 
f 32//32 28//28 109//109 
f 66//66 19//19 23//23 
f 30//30 28//28 105//105 
f 23//23 111//111 113//113 
f 44//44 108//108 29//29 
f 10//10 41//41 80//80 
f 31//31 29//29 46//46 
f 100//100 43//43 111//111 
f 42//42 8//8 124//124 
f 17//17 91//91 35//35 
f 91//91 12//12 2//2 
f 112//112 43//43 122//122 
f 17//17 20//20 75//75 
f 67//67 37//37 122//122 
f 49//49 3//3 101//101 
f 72//72 105//105 15//15 
f 90//90 36//36 13//13 
f 123//123 15//15 32//32 
f 58//58 109//109 28//28 
f 81//81 83//83 76//76 
f 29//29 31//31 44//44 
f 7//7 48//48 114//114 
f 65//65 45//45 18//18 
f 60//60 49//49 129//129 
f 46//46 29//29 118//118 
f 46//46 50//50 31//31 
f 47//47 13//13 89//89 
f 24//24 56//56 113//113 
f 11//11 52//52 9//9 
f 5//5 52//52 1//1 
f 72//72 53//53 105//105 
f 77//77 53//53 132//132 
f 88//88 54//54 51//51 
f 54//54 23//23 113//113 
f 70//70 35//35 2//2 
f 55//55 107//107 25//25 
f 126//126 64//64 125//125 
f 56//56 24//24 79//79 
f 51//51 56//56 4//4 
f 54//54 71//71 66//66 
f 57//57 124//124 8//8 
f 58//58 28//28 92//92 
f 103//103 127//127 88//88 
f 95//95 101//101 3//3 
f 59//59 6//6 17//17 
f 129//129 25//25 60//60 
f 49//49 60//60 73//73 
f 10//10 61//61 41//41 
f 61//61 22//22 55//55 
f 25//25 129//129 55//55 
f 61//61 62//62 41//41 
f 63//63 40//40 87//87 
f 64//64 22//22 78//78 
f 64//64 106//106 22//22 
f 100//100 19//19 34//34 
f 54//54 66//66 23//23 
f 19//19 66//66 96//96 
f 16//16 122//122 37//37 
f 67//67 26//26 75//75 
f 68//68 7//7 85//85 
f 56//56 68//68 21//21 
f 16//16 86//86 108//108 
f 69//69 29//29 108//108 
f 70//70 14//14 78//78 
f 70//70 27//27 35//35 
f 57//57 8//8 97//97 
f 71//71 88//88 127//127 
f 28//28 32//32 105//105 
f 53//53 72//72 102//102 
f 68//68 73//73 21//21 
f 49//49 73//73 3//3 
f 16//16 74//74 112//112 
f 13//13 118//118 89//89 
f 99//99 82//82 116//116 
f 67//67 75//75 37//37 
f 57//57 4//4 21//21 
f 115//115 76//76 83//83 
f 39//39 71//71 98//98 
f 53//53 77//77 30//30 
f 26//26 34//34 33//33 
f 70//70 78//78 128//128 
f 79//79 24//24 87//87 
f 56//56 79//79 68//68 
f 93//93 46//46 110//110 
f 10//10 80//80 90//90 
f 42//42 81//81 8//8 
f 58//58 115//115 38//38 
f 82//82 112//112 116//116 
f 43//43 82//82 63//63 
f 15//15 12//12 18//18 
f 6//6 59//59 47//47 
f 46//46 93//93 50//50 
f 45//45 96//96 121//121 
f 85//85 114//114 104//104 
f 68//68 85//85 73//73 
f 37//37 86//86 16//16 
f 69//69 86//86 89//89 
f 63//63 87//87 24//24 
f 79//79 87//87 94//94 
f 54//54 88//88 71//71 
f 103//103 77//77 127//127 
f 69//69 89//89 118//118 
f 89//89 20//20 47//47 
f 10//10 90//90 27//27 
f 47//47 90//90 13//13 
f 91//91 17//17 75//75 
f 30//30 92//92 28//28 
f 115//115 92//92 130//130 
f 90//90 59//59 27//27 
f 80//80 41//41 117//117 
f 79//79 94//94 7//7 
f 94//94 40//40 131//131 
f 59//59 17//17 35//35 
f 50//50 95//95 104//104 
f 62//62 49//49 101//101 
f 39//39 121//121 96//96 
f 102//102 39//39 132//132 
f 92//92 97//97 130//130 
f 57//57 97//97 103//103 
f 38//38 64//64 126//126 
f 109//109 125//125 123//123 
f 48//48 131//131 44//44 
f 91//91 75//75 26//26 
f 93//93 119//119 50//50 
f 43//43 100//100 67//67 
f 91//91 33//33 12//12 
f 38//38 83//83 106//106 
f 62//62 101//101 120//120 
f 65//65 96//96 45//45 
f 100//100 34//34 26//26 
f 36//36 84//84 110//110 
f 65//65 18//18 33//33 
f 62//62 61//61 129//129 
f 30//30 77//77 97//97 
f 57//57 103//103 4//4 
f 50//50 104//104 31//31 
f 85//85 104//104 3//3 
f 30//30 105//105 53//53 
f 47//47 20//20 6//6 
f 81//81 107//107 83//83 
f 38//38 115//115 83//83 
f 42//42 107//107 81//81 
f 106//106 107//107 55//55 
f 69//69 108//108 86//86 
f 108//108 44//44 74//74 
f 125//125 109//109 126//126 
f 88//88 51//51 4//4 
f 110//110 46//46 118//118 
f 117//117 93//93 84//84 
f 100//100 111//111 23//23 
f 63//63 111//111 43//43 
f 43//43 112//112 82//82 
f 16//16 108//108 74//74 
f 24//24 113//113 111//111 
f 54//54 113//113 51//51 
f 7//7 114//114 85//85 
f 31//31 114//114 48//48 
f 106//106 83//83 107//107 
f 92//92 115//115 58//58 
f 99//99 116//116 131//131 
f 116//116 112//112 74//74 
f 48//48 44//44 31//31 
f 120//120 117//117 41//41 
f 69//69 118//118 29//29 
f 110//110 118//118 13//13 
f 95//95 119//119 120//120 
f 100//100 23//23 19//19 
f 42//42 25//25 107//107 
f 120//120 119//119 117//117 
f 95//95 120//120 101//101 
f 39//39 102//102 121//121 
f 96//96 65//65 19//19 
f 45//45 121//121 102//102 
f 112//112 122//122 16//16 
f 67//67 122//122 43//43 
f 81//81 76//76 130//130 
f 109//109 123//123 32//32 
f 24//24 111//111 63//63 
f 21//21 124//124 57//57 
f 42//42 124//124 60//60 
f 39//39 98//98 132//132 
f 123//123 12//12 15//15 
f 58//58 126//126 109//109 
f 78//78 125//125 64//64 
f 127//127 132//132 98//98 
f 126//126 58//58 38//38 
f 61//61 128//128 22//22 
f 27//27 128//128 10//10 
f 42//42 60//60 25//25 
f 62//62 129//129 49//49 
f 8//8 130//130 97//97 
f 115//115 130//130 76//76 
f 94//94 131//131 48//48 
f 99//99 131//131 40//40 
f 77//77 132//132 127//127 
f 102//102 132//132 53//53 
